<svg width="282" height="84" viewBox="0 0 282 84" fill="none" xmlns="http://www.w3.org/2000/svg">
<path d="M78.216 34.336V52H70.984V36C70.984 30.112 68.04 26.592 63.304 26.592C59.72 26.592 56.712 28.512 54.728 31.968V52H47.56V20H54.024L54.6 25.568C56.968 21.792 61 19.68 65.928 19.68C73.352 19.68 78.216 25.376 78.216 34.336ZM89.332 29.024C89.332 35.36 108.596 31.2 108.596 43.168C108.596 48.544 103.22 52.32 95.476 52.32C87.412 52.32 81.588 47.904 81.716 41.184H89.076C89.268 44.832 91.892 47.072 95.54 47.072C98.804 47.072 101.236 45.408 101.236 43.232C101.236 36.768 82.036 40.736 82.036 29.152C82.036 23.136 87.796 19.68 94.644 19.68C102.26 19.68 107.572 23.776 107.828 30.176H100.596C100.468 27.04 97.972 24.992 94.836 24.992C91.572 24.992 89.332 26.592 89.332 29.024ZM117.945 33.376H135.353C134.713 28.768 131.449 25.888 126.777 25.888C122.169 25.888 118.841 28.896 117.945 33.376ZM142.521 35.744V37.984H117.817C118.585 42.784 122.169 45.984 127.289 45.984C132.345 45.984 135.161 42.72 135.545 40.352H142.457C141.305 47.328 135.417 52.32 126.969 52.32C117.753 52.32 110.649 45.664 110.649 36.128C110.649 26.336 117.753 19.616 126.969 19.616C135.481 19.616 142.521 25.76 142.521 35.744ZM175.608 34.208V52H168.44V35.104C168.44 29.664 165.944 26.592 161.464 26.592C158.136 26.592 155.512 28.512 153.656 32.032V52H146.488V20H152.952L153.464 25.632C155.64 21.92 159.352 19.68 163.96 19.68C168.696 19.68 172.216 21.92 174.2 25.824C176.569 21.92 180.472 19.68 185.016 19.68C192.376 19.68 196.921 24.992 196.921 33.632V52H189.752V35.296C189.752 29.856 187.064 26.592 182.777 26.592C178.361 26.592 175.608 29.536 175.608 34.208ZM209.341 36.064C209.341 42.592 213.245 45.344 217.533 45.344C222.653 45.344 226.237 41.696 226.237 36.064C226.237 30.56 222.525 26.72 217.533 26.72C212.541 26.72 209.341 29.792 209.341 36.064ZM208.637 52H202.173V8.8H209.341V23.712C211.517 21.088 214.845 19.616 218.749 19.616C227.837 19.616 233.533 26.208 233.533 36.128C233.533 45.984 227.837 52.448 218.813 52.448C214.717 52.448 211.005 50.464 208.893 47.456L208.637 52ZM237.358 52V8.8H244.59V52H237.358ZM255.87 33.376H273.278C272.638 28.768 269.374 25.888 264.702 25.888C260.094 25.888 256.766 28.896 255.87 33.376ZM280.446 35.744V37.984H255.742C256.51 42.784 260.094 45.984 265.214 45.984C270.27 45.984 273.086 42.72 273.47 40.352H280.382C279.23 47.328 273.342 52.32 264.894 52.32C255.678 52.32 248.574 45.664 248.574 36.128C248.574 26.336 255.678 19.616 264.894 19.616C273.406 19.616 280.446 25.76 280.446 35.744Z" fill="black"/>
<path d="M0.268125 55.225C-0.159914 57.3922 1.25001 59.4962 3.41729 59.9242C5.58456 60.3522 7.68848 58.9423 8.11652 56.775L4.19232 56L0.268125 55.225ZM38.1923 51.2615L42.1923 51.2615L42.1923 43.2615L38.1923 43.2615L38.1923 47.2615L38.1923 51.2615ZM4.19232 56L8.11652 56.775C8.53937 54.634 9.28042 53.6009 10.0715 52.9708C10.9622 52.2614 12.4077 51.6723 14.9099 51.3347C17.4114 50.9972 20.5404 50.9604 24.5106 51.0287C28.3785 51.0953 33.0473 51.2615 38.1923 51.2615L38.1923 47.2615L38.1923 43.2615C33.1258 43.2615 28.7194 43.0999 24.6482 43.0299C20.6793 42.9616 17.0054 42.9795 13.8402 43.4066C10.6757 43.8336 7.59084 44.7191 5.08729 46.7132C2.48409 48.7866 0.967103 51.6859 0.268125 55.225L4.19232 56Z" fill="black"/>
<path d="M0.268125 11.775C-0.159914 9.60776 1.25001 7.50384 3.41729 7.0758C5.58456 6.64776 7.68848 8.05769 8.11652 10.225L4.19232 11L0.268125 11.775ZM38.1923 15.7385L42.1923 15.7385L42.1923 23.7385L38.1923 23.7385L38.1923 19.7385L38.1923 15.7385ZM4.19232 11L8.11652 10.225C8.53937 12.366 9.28042 13.3991 10.0715 14.0292C10.9622 14.7386 12.4077 15.3277 14.9099 15.6653C17.4114 16.0028 20.5404 16.0396 24.5106 15.9713C28.3785 15.9047 33.0473 15.7385 38.1923 15.7385L38.1923 19.7385L38.1923 23.7385C33.1258 23.7385 28.7194 23.9001 24.6482 23.9701C20.6793 24.0384 17.0054 24.0205 13.8402 23.5934C10.6757 23.1664 7.59084 22.2809 5.08729 20.2868C2.48409 18.2134 0.967103 15.3141 0.268125 11.775L4.19232 11Z" fill="black"/>
<path d="M5.19232 30C2.98318 30 1.19232 31.7909 1.19232 34C1.19232 36.2091 2.98318 38 5.19232 38L5.19232 34L5.19232 30ZM5.19232 34L5.19232 38L42.1923 38L42.1923 34L42.1923 30L5.19232 30L5.19232 34Z" fill="black"/>
<path d="M206.2 72.23C206.2 75.2 215.23 73.25 215.23 78.86C215.23 81.38 212.71 83.15 209.08 83.15C205.3 83.15 202.57 81.08 202.63 77.93H206.08C206.17 79.64 207.4 80.69 209.11 80.69C210.64 80.69 211.78 79.91 211.78 78.89C211.78 75.86 202.78 77.72 202.78 72.29C202.78 69.47 205.48 67.85 208.69 67.85C212.26 67.85 214.75 69.77 214.87 72.77H211.48C211.42 71.3 210.25 70.34 208.78 70.34C207.25 70.34 206.2 71.09 206.2 72.23ZM221.507 68H224.567V71.06H221.507V77.54C221.507 79.25 222.227 80 223.877 80H224.987V83.15H223.367C219.797 83.15 218.117 81.59 218.117 78.23V71.06H216.617V68H218.117L218.567 64.46H221.507V68ZM226.928 76.31V68H230.318V75.56C230.318 78.53 231.428 79.91 233.768 79.91C235.538 79.91 236.978 78.89 237.968 77.06V68H241.328V83H238.298L238.028 80.12C236.768 82.13 235.028 83.15 232.658 83.15C228.968 83.15 226.928 80.75 226.928 76.31ZM254.599 75.53C254.599 72.59 253.099 71.15 250.759 71.15C248.449 71.15 246.709 72.95 246.709 75.53C246.709 78.14 248.419 79.88 250.759 79.88C252.979 79.88 254.599 78.32 254.599 75.53ZM257.989 62.75V83H254.959L254.809 80.9C253.819 82.31 252.019 83.21 250.159 83.21C245.929 83.21 243.289 80.18 243.289 75.56C243.289 70.91 245.959 67.82 250.219 67.82C252.019 67.82 253.609 68.54 254.599 69.77V62.75H257.989ZM260.503 83V68H264.013V83H260.503ZM260.323 64.61C260.323 63.47 261.133 62.66 262.303 62.66C263.503 62.66 264.253 63.47 264.253 64.61C264.253 65.75 263.503 66.59 262.303 66.59C261.133 66.59 260.323 65.75 260.323 64.61ZM266.021 75.5C266.021 71 269.471 67.82 273.701 67.82C277.871 67.82 281.351 71 281.351 75.5C281.351 79.97 277.871 83.15 273.701 83.15C269.471 83.15 266.021 79.97 266.021 75.5ZM269.411 75.47C269.411 78.02 271.301 79.82 273.761 79.82C276.041 79.82 277.931 77.99 277.931 75.47C277.931 72.86 275.921 71.15 273.761 71.15C271.301 71.15 269.411 72.95 269.411 75.47Z" fill="black"/>
</svg>
