<svg width="117" height="40" viewBox="0 0 117 40" fill="none" xmlns="http://www.w3.org/2000/svg">
<path d="M22.3364 18.4975V11.6627H25.1246V17.8807C25.1246 20.3235 26.0376 21.4585 27.9622 21.4585C29.418 21.4585 30.6024 20.6196 31.4167 19.1144V11.6627H34.1802V24H31.6881L31.466 21.6312C30.4297 23.2844 28.9986 24.1234 27.0493 24.1234C24.0143 24.1234 22.3364 22.1494 22.3364 18.4975ZM48.1062 17.1898V24H45.318V17.8313C45.318 15.5613 44.1829 14.2041 42.357 14.2041C40.9752 14.2041 39.8155 14.9444 39.0506 16.2768V24H36.287V11.6627H38.7792L39.0012 13.8093C39.9142 12.3535 41.4687 11.5393 43.3687 11.5393C46.2309 11.5393 48.1062 13.7353 48.1062 17.1898ZM52.3919 15.1418C52.3919 17.5846 59.819 15.9807 59.819 20.5949C59.819 22.6676 57.7463 24.1234 54.7607 24.1234C51.6517 24.1234 49.4063 22.4208 49.4556 19.83H52.2932C52.3672 21.2364 53.3789 22.1 54.7853 22.1C56.0438 22.1 56.9814 21.4585 56.9814 20.6196C56.9814 18.1274 49.579 19.6573 49.579 15.1911C49.579 12.8717 51.7997 11.5393 54.4399 11.5393C57.3762 11.5393 59.4242 13.1185 59.5229 15.5859H56.7346C56.6853 14.3769 55.723 13.5873 54.5139 13.5873C53.2555 13.5873 52.3919 14.2041 52.3919 15.1418ZM64.0121 17.856C64.0121 20.2741 65.2952 21.4092 67.1705 21.4092C69.0458 21.4092 70.5263 20.0274 70.5263 17.8067C70.5263 15.5613 68.9964 14.2288 67.2199 14.2288C65.3692 14.2288 64.0121 15.4626 64.0121 17.856ZM61.2486 28.3181V11.6627H63.7407L63.8641 13.3899C64.6784 12.2548 66.0848 11.4899 67.738 11.4899C71.0444 11.4899 73.3392 13.8834 73.3392 17.782C73.3392 21.7053 71.0691 24.148 67.6393 24.148C66.1588 24.148 64.8511 23.5805 64.0121 22.5442V28.3181H61.2486ZM74.272 17.8313C74.272 14.1301 77.1096 11.5146 80.5887 11.5146C84.0185 11.5146 86.8808 14.1301 86.8808 17.8313C86.8808 21.5079 84.0185 24.1234 80.5887 24.1234C77.1096 24.1234 74.272 21.5079 74.272 17.8313ZM77.0602 17.8067C77.0602 19.904 78.6147 21.3845 80.6381 21.3845C82.5133 21.3845 84.0678 19.8793 84.0678 17.8067C84.0678 15.66 82.4146 14.2535 80.6381 14.2535C78.6147 14.2535 77.0602 15.734 77.0602 17.8067ZM87.813 17.8313C87.813 14.1301 90.6506 11.5146 94.1297 11.5146C97.5595 11.5146 100.422 14.1301 100.422 17.8313C100.422 21.5079 97.5595 24.1234 94.1297 24.1234C90.6506 24.1234 87.813 21.5079 87.813 17.8313ZM90.6012 17.8067C90.6012 19.904 92.1558 21.3845 94.1791 21.3845C96.0544 21.3845 97.6089 19.8793 97.6089 17.8067C97.6089 15.66 95.9557 14.2535 94.1791 14.2535C92.1558 14.2535 90.6012 15.734 90.6012 17.8067ZM101.944 24V7.34458H104.732V24H101.944Z" fill="black"/>
<path d="M18.7248 24.5903C17.8598 20.2105 13.4903 21.2213 5.61636 21.2213" stroke="#FF6932" stroke-width="2.8" stroke-linecap="round"/>
<path d="M4.61633 9.24097C5.48136 13.6208 9.85083 12.61 17.7248 12.61" stroke="#3D00F6" stroke-width="2.8" stroke-linecap="round"/>
<path d="M5 17H18" stroke="#AC00F6" stroke-width="2.8" stroke-linecap="round"/>
<path d="M76.4988 30.5948C76.4988 31.7398 79.9802 30.988 79.9802 33.1509C79.9802 34.1225 79.0087 34.8049 77.6092 34.8049C76.1518 34.8049 75.0993 34.0068 75.1224 32.7924H76.4525C76.4872 33.4516 76.9614 33.8565 77.6207 33.8565C78.2106 33.8565 78.6501 33.5557 78.6501 33.1625C78.6501 31.9943 75.1802 32.7114 75.1802 30.6179C75.1802 29.5307 76.2212 28.9061 77.4588 28.9061C78.8352 28.9061 79.7952 29.6463 79.8414 30.803H78.5345C78.5113 30.2362 78.0602 29.8661 77.4935 29.8661C76.9036 29.8661 76.4988 30.1553 76.4988 30.5948ZM82.4001 28.9639H83.5799V30.1437H82.4001V32.642C82.4001 33.3013 82.6777 33.5904 83.3139 33.5904H83.7418V34.8049H83.1172C81.7408 34.8049 81.0931 34.2035 81.0931 32.908V30.1437H80.5148V28.9639H81.0931L81.2666 27.5991H82.4001V28.9639ZM84.4902 32.1678V28.9639H85.7972V31.8786C85.7972 33.0237 86.2251 33.5557 87.1273 33.5557C87.8097 33.5557 88.3649 33.1625 88.7466 32.4569V28.9639H90.042V34.7471H88.8738L88.7697 33.6367C88.2839 34.4116 87.6131 34.8049 86.6993 34.8049C85.2767 34.8049 84.4902 33.8796 84.4902 32.1678ZM95.1587 31.8671C95.1587 30.7336 94.5804 30.1784 93.6782 30.1784C92.7876 30.1784 92.1168 30.8724 92.1168 31.8671C92.1168 32.8733 92.7761 33.5442 93.6782 33.5442C94.5341 33.5442 95.1587 32.9427 95.1587 31.8671ZM96.4657 26.9398V34.7471H95.2975L95.2397 33.9374C94.858 34.481 94.164 34.828 93.4469 34.828C91.8161 34.828 90.7982 33.6598 90.7982 31.8786C90.7982 30.0859 91.8276 28.8945 93.47 28.8945C94.164 28.8945 94.777 29.1721 95.1587 29.6463V26.9398H96.4657ZM97.435 34.7471V28.9639H98.7883V34.7471H97.435ZM97.3656 27.6569C97.3656 27.2174 97.6779 26.9051 98.129 26.9051C98.5916 26.9051 98.8808 27.2174 98.8808 27.6569C98.8808 28.0965 98.5916 28.4203 98.129 28.4203C97.6779 28.4203 97.3656 28.0965 97.3656 27.6569ZM99.5622 31.8555C99.5622 30.1206 100.892 28.8945 102.523 28.8945C104.131 28.8945 105.473 30.1206 105.473 31.8555C105.473 33.5789 104.131 34.8049 102.523 34.8049C100.892 34.8049 99.5622 33.5789 99.5622 31.8555ZM100.869 31.8439C100.869 32.8271 101.598 33.521 102.546 33.521C103.425 33.521 104.154 32.8155 104.154 31.8439C104.154 30.8377 103.379 30.1784 102.546 30.1784C101.598 30.1784 100.869 30.8724 100.869 31.8439Z" fill="black"/>
</svg>
